<?xml version="1.0" standalone="no"?>
<svg xmlns="http://www.w3.org/2000/svg" viewBox="0 0 131.156 36" width="131.156" height="36"><g fill="#9900ff" color="#9900ff" transform="translate(0 6) scale(0.4444445)"><svg width="53.0" height="54.0" x="0.0" y="0.0" viewBox="0 0 53 54"><path fill="currentColor" fill-rule="evenodd" d="M20.729.716c5.69-1.335 11.613-.755 16.548 1.336.117.116.407.232.407.348 4.993 2.207 9.464 6.213 11.961 11.09.686 1.2 1.48 2.789 1.616 3.725.011.025.02.052.03.078.26.346.636 1.476.594 1.64l.043.132c.149.277.311.91.45 1.602 1.266 5.244.847 11.134-1.642 16.28.027-.02.051-.027.07.002-.057.29-.232.522-.406.87 0-.055.032-.185.076-.326-.209.444-.434.88-.67 1.308-.164.358-.332.711-.509 1.05 0 .35.174 0 .29 0-.29.698-1.277 1.917-1.22 1.917-.115.29-.348.29-.638.755-.523.87-1.51 2.206-2.496 3.02-.175.58-1.568 1.567-2.091 2.148-1.103.638-3.077 2.322-4.703 2.845-.349.116-.29.174-.58.348-4.704 2.265-10.743 3.136-16.491 1.916-5.749-1.161-10.916-4.412-14.284-8.361-1.045-1.22-2.149-2.497-2.845-3.832-.233-.465-.349-.407-.58-.871-.117-.29-.814-1.568-.988-1.8-.174-.813-.697-1.336-.813-2.09-.116-.232-.058.115-.116.058-.29-.871-1.742-5.052-1.452-6.91-.212-.319-.325-1.465-.254-2.592l-.001.022v.029c.003.267.217-1.335.15-1.61l-.01-.03c-.117-.116-.117.639-.175.174.058-.348.29-1.8.116-.87l.001-.008.016-.227c.078-.837.303-1.448.464-2.534l.042-.31c-.02-.02-.04.047-.06.148l.001-.01.07-.362c.335-1.642.926-3.62 1.858-5.591l.221-.455c1.22-2.555 3.02-4.936 4.703-6.736-.058.465-1.51 1.568-1.684 2.149C9.581 5.42 14.981 2.11 20.73.716zM40.787 48.01c-.459.272-.926.526-1.4.767a25.207 25.207 0 0 1-10.47 3.326c3.948-.058 7.316-1.51 10.335-3.193a29.018 29.018 0 0 0 1.535-.9zm-7.841 2.944c-.536.094-1.202.195-1.896.28-2.26.404-4.634.347-6.315.347 2.687.389 5.48.108 8.21-.627zM27.987 3.678c-.174.058-.29.058-.464.058h.232c-.058.058-.349.058-.639.058.058 0 .117-.058.117-.058h-.117s-.29-.058-.522 0c-.059.058-.175.058-.29.058v.058c-.756.058-1.162.058-1.743.174h-.116c-.058 0-.116.058-.232.058h-.174c.232-.116 0-.058-.116-.058a.276.276 0 0 0-.074.015l-.078.025.043-.011a.955.955 0 0 1 .08-.02l.087-.009c-.407.174-1.336.348-2.033.465-1.219.348-2.496.812-3.658 1.335h-.058c-.058.058-.174.058-.232.116.058 0 .116 0 0 .058-.174.058-.29.116-.29.174-.155.052-.353.146-.477.166l.186-.108c-.058 0-.116.059-.174.059 0-.007.007-.017.017-.029-.058.03-.116.067-.175.097a.519.519 0 0 1 .1-.01c-.522.232-.697.406-1.335.754l.083-.047.033-.01c-.233.139-.502.315-.809.529l-.236.167c-.117.116.406-.174.116 0-.523.29-.58.29-1.278.813.116-.174.697-.523.755-.697-1.451.987-2.613 2.207-3.948 3.716.058-.116.464-.638.29-.58-3.6 3.948-5.69 9.406-5.98 13.935-.117-.116 0-.813.057-1.335-.058.116-.116.522-.174.522-.116 1.394-.232 3.31 0 4.994 0 .116.058.232.058.406v-1.033c.003.03.012.104.058.104.044-.48.022-1.124.009-1.637-.003-.015-.005-.033-.009-.047.003-.014.004-.028.006-.043a14.41 14.41 0 0 1-.006-.363c0-.29.058-.232.058-.348 0-.581.349-2.149.233-1.51 0 .035-.004.068-.005.103l-.001-.002.039-.281a46.52 46.52 0 0 1 .41-2.384l.08-.397c.057.058.057-.117.115-.058.117-.523.059-.407.059-.755.29-.465.406-1.336.87-2.439.117-.058.117 0 .117.174-.175.407-.175.29-.29.697-.059 0-.117.058-.117.058-.116.348-.116.465-.232.697 0 .174.058 0 .116 0-.058.348-.174.58-.232.464-.058.233-.116.407-.116.523.058.058.116-.465.174-.29-.116.406-.116.522-.116.754-.116.407-.174.697-.29 1.162-.059.174 0 0 0 .232-.117.406-.117.174-.175.058-.058.465.058.523-.058.987-.058 0 0-.116-.058-.116-.058.29 0 .406-.058.639.058-.116.058-.116.116-.116-.058.754-.116.754-.116 1.51v-.002l-.002-.023c-.01-.05-.044-.108-.054-.028l-.003.051-.015-.04c-.005-.073.045-.2.066-.299l.008-.066c0-.349-.058.58-.116.232v.407c0 .29.116.174.116.348 0 .464.116 1.51 0 1.742-.058.29 0 .174-.058.232 0 1.452.29 2.961.755 4.878-.058.174-.116-.29-.174-.175-.117-.406-.233-.58-.29-.929.057-.116-.117-.929-.175-1.277 0 0 0 .174.058.406-.174-.232-.116-.464-.232-.929.058.233 0-.058.058-.116-.116-.174 0-.522-.116-.639.058-.116-.058-1.103-.058-1.625-.047 0-.097-.146-.176-.14-.008.5-.008 1 .005 1.492.062.266.287 1.845.287 2.132.116.406.522 2.09.639 2.787.464 1.336 1.16 3.078 1.858 4.354.116.117.174.233.232.349v.058c.058.059.116.174.174.232 0-.116-.058-.173.058-.058.116.116.174.232.232.232.058.175.233.407.233.524.174.173.116 0 .29.231.174.232.116.232.29.465-.232-.174-.464-.523-.813-.987 0 .058.058.116.117.174.058.117.058.117.058.174.406.697.929 1.277 1.742 2.148.083.042-.071-.184-.08-.229a40.61 40.61 0 0 1-.791-1.048c-.175-.232-.64-.871-.64-.871 0-.116-1.044-1.626-1.044-2.032.348.638.58 1.104.929 1.51l-.058.057c.348.465.87 1.22.929 1.452.174.174-.058-.116.116.058.116.232.116.232.406.64-.116-.175.871.812.813.928.116.116.116 0 .349.29.047.088.114.156.173.232-.23-.173-.115.001 0 .117l-.003-.004-.162-.154a9.386 9.386 0 0 1-.509-.554l-.172-.204c.171.261.27.44.73.858-.174-.058-.58-.581-.754-.639a17.732 17.732 0 0 0 2.148 1.974c-.348-.348-.755-.697-1.103-1.045-.086-.128-.077-.194-.113-.266.373.435.896.733 1.274 1.253.237.19.169.037.29.128-.316-.294-.46-.518-.928-.882-.175-.29.174.115.232.057-.083-.123-.226-.193-.405-.345.164.277-.466-.41-.524-.526-.058-.116.232.233.406.349-.697-.813-1.568-1.452-1.974-2.323.116.116.174.058.29.175.175.231.116.29.233.406.464.406.638.696.987.987 0 .058.058.058.116.174-.29-.116-.058 0 .116.175.406.406 1.452 1.393 1.684 1.567.929.639 1.626 1.336 2.264 1.684l-.058.058c.349.116.465.29.871.465h-.116c.987.522 1.452.87 2.323 1.161.522.522 1.858.696 2.496 1.103.349.059.697.232.871.174.059.058.697.175.523.232 1.277.29 4.471.814 6.097.639 0 .058.349 0 .58.058.14-.046.201-.053.043.064.069.013.074.053.074.053.406 0 .813-.059 1.277-.117.117 0 .232-.058.29-.058h.233c.29 0 .638-.058.929-.116.058-.058.116-.058.116-.116.323-.054.492-.055.561-.01.086-.022.26-.098.31-.048.058-.058.116-.058.174-.058.174-.058.348-.116.58-.175-.29.059-.754.233-.87.175.29-.058 1.858-.523 2.149-.523.347-.174 1.567-.58 2.322-.87 0-.059.058-.116.174-.116h.116c.058-.06.058-.06.116-.06.232-.115.406-.23.639-.347 0-.117.29-.174.58-.349.988-.58 2.09-1.22 2.962-1.8.29-.29.639-.522.987-.813l.058-.058h.058c.174-.116.29-.232.464-.348.29-.465 1.395-1.16 1.626-1.684.232-.29.174-.058.35-.29.52-.753.925-1.101 1.158-1.622-.115.154-.23.307-.347.46-.116.116-.174.058-.29.174-.129.13-.036.1.045.028-.523.673-1.297 1.396-2.077 2.12-.232.175-.812.756-.812.756-.175 0-1.51 1.22-1.917 1.277.58-.464 1.046-.697 1.393-1.103l.058.058c.466-.406 1.104-1.045 1.337-1.103.115-.174-.175.058 0-.116.173-.116.231-.116.58-.465-.175.174.696-.87.813-.87.116-.117 0-.117.232-.35.58-.463.813-1.16 1.393-1.683.233-.29-.058-.058.175-.407-.349.407-.523.523-.87 1.104-.234.174.115-.175.057-.233-.175.175-.233.407-.523.697 0 .04.125-.052.193-.133-.13.173-.356.447-.425.482-.116 0 .174-.29.29-.465a9.335 9.335 0 0 0-.387.454 2.58 2.58 0 0 1 .097-.164c.348-.406 1.22-1.51 1.335-1.8.523-.987 1.162-1.8 1.394-2.438l.058.058c.058-.349.174-.523.348-.93v.117c.407-1.045.697-1.568.871-2.439.465-.58.465-1.916.813-2.613 0-.348.174-.697.058-.87.058 0 .058-.698.175-.523.057-1.22.29-4.53-.117-6.097.058 0-.058-.349 0-.58-.058-.291-.116-.291-.173-.175.057-.174-.117-.697-.059-.87-.116-.117-.232-.64-.348-.93-.058-.29-.058-.464-.117-.755-.174-.232-.232-.697-.406-.929.116 0-.174-.406 0-.348-.268-.313-.502-1.138-.833-1.872l.001.004.02.068a4.596 4.596 0 0 1-.144-.315l-.032-.08a3.946 3.946 0 0 0-.173-.302c.073.037.105.13.173.302l.08.16.073.158c-.052-.197-.12-.376-.326-.736.232.29-.116-.29 0-.232-.174-.117-.232-.29-.232-.117-.117-.174 0-.116-.175-.406-.115-.116-.058.058-.058.174-.116-.348-.29-.58-.116-.464-.174-.407-.29-.233-.406-.523 0-.174 0-.116.174.174-.232-.522-.349-.638-.755-1.219.29.29-.29-.348 0-.116-.174-.174-.58-.871-.523-.697-1.044-1.452-1.974-2.264-3.193-3.542-.232-.116-.58-.464-.93-.813-.29-.232-.58-.464-.87-.638l-.116-.117c-2.73-1.858-5.806-3.135-8.652-3.658.174-.058.814.116 1.336.233-.117-.058-.522-.175-.522-.233-.175-.058-.35-.058-.524-.116h-.116c-.174-.058-.231-.116-.231-.116-.175-.058-.35-.058-.581-.116 0 0 .057.058.174.058-.058 0-.64-.058-.117.058-.58-.116-1.045-.174-1.393-.29h-.232c-.116 0-.058.058-.233.058-.406 0-1.567-.232-1.858-.058 0-.058-.058-.116-.232-.116zm9.116 44.07c.175 0-.29.117-.174.174-.406.175-.58.29-.929.407-.174 0-.929.29-1.277.349 0 .058.174 0 .406-.058-.232.232-.522.173-.929.348.232-.116-.058 0-.116-.058-.174.116-.523.058-.639.174-.116-.058-1.103.116-1.626.233.059.057-.232.174-.058.232-.406.058-.754.058-.987.174-.348 0-.696 0-.755-.059-.929.117-2.496.059-4.47-.173 0-.058-.117-.058-.117-.117-.522 0-.406 0-.754.059-.523-.233-1.394-.29-2.555-.581-.116-.116-.058-.116.116-.116.406.116.348.057.755.174.058.058.116.058.116.116.406.116.522.058.755.174.174-.058 0-.058 0-.116.348.058.638.116.522.174a2 2 0 0 0 .523.059c.058-.059-.465-.059-.29-.117.406.117.522.058.754.058.407.059.697.116 1.162.175.174 0-.058-.059.232-.059.464.059.232.117.116.175.465 0 .523-.116.987-.058 0 0-.116 0-.116.058.348.058.406 0 .639 0-.116-.058-.116-.058-.116-.116.754-.059.754.058 1.51-.059l-.034.004-.016.005c-.04.014-.07.04-.003.047l.052.003c-.058.058-.29 0-.406 0-.349.058.58.058.232.116h.406c.233-.058.117-.116.29-.175.465-.057 1.51-.29 1.743-.174.29 0 .174-.058.29-.116 1.452-.174 2.903-.638 4.761-1.335zm-23.632-2.38c.464.348.87.697 1.103.929.116.059.174.059.232.059.175.115.407.231.175.173.522.29 1.451.988 1.916 1.162.522.407 2.206 1.103 3.251 1.568.813.173 1.336.464 2.149.464-.116-.116-.349-.058-.639-.174-.058 0 .058-.058 0-.058-.755-.117-4.877-1.917-5.69-2.555a22.78 22.78 0 0 1-1.742-1.22c-.058 0-.058.059 0 .116a5.3 5.3 0 0 1-.755-.464zm13.471 3.484c.465 0 0 0 .232.058.407-.058.813.058 1.162.058-.117.058-.29.058-.407.116-.348-.058-.232-.116-.639-.058 0-.058.117-.058.29-.058-.115-.058-.522 0-.522.058a3.473 3.473 0 0 0-.392-.064c.146-.056-.004-.11.276-.11zM3.831 22.787l-.094.444c-.404 2.14-.242 4.807-.079 6.866-.174-.406-.232-1.336-.29-1.858v.013l.034.495a25.309 25.309 0 0 0 2.493 9.03l.26.507c-.407-.406-.93-1.568-1.278-2.497-.232-.638-.464-1.335-.696-1.974-.025-.012-.031.005-.03.036.77 2.5 1.934 4.876 3.455 6.99 1.742 2.323 3.6 3.948 5.807 5.574.58.465 1.161.93 1.858 1.336.87.522 1.742.812 2.613 1.22l.23.095c-1.985-.931-3.752-2.053-4.933-3.115a21.847 21.847 0 0 1-4.24-4.471c-.115-.058-.115-.175-.173-.29-.116-.233-.465-.639-.639-.93-.058-.058-.058-.116-.116-.174a23.495 23.495 0 0 1-2.265-3.89c-.522-1.103-1.219-3.136-1.567-4.53v.117c-.064-.064-.059-.133-.06-.236-.175-.362-.637-3.483-.58-4.584-.057-1.51.117-3.019.291-4.18l-.001.006zM24.736 48.62c.638.058 1.103.116 1.741.232-.057 0-.115 0-.115.058 0 .013.01.021.024.03-.225-.015-.487-.03-.895-.088-.059-.058.174-.058.116-.116h-.233c-.116-.058-.116 0-.116.058-.464-.058-.638-.116-.522-.174zm-2.613-.755c1.219.29 1.219.348 2.438.58.175.233-.522.058-.638.058-.755-.174-1.22-.29-1.916-.522.174 0 .174 0 .116-.116zm-6.33-3.077c.465.406.756.406 1.162.697-.29-.117-.058 0 .058.115 0-.058.116 0 .29.059.523.464 1.22.58 1.22.754.29.058.697.29 1.22.523 0 .058-.291-.116-.291-.058s.522.232.522.174c.116.058.116.116.175.058.348.116.406.232.754.29l-.058.117c.116.057.116-.059.116-.059.29.059.117.116.29.174.117.059-.057-.058 0-.058.233.117.465.174.756.233.116.174-.117.116-.175.174-1.916-.639-3.716-1.51-5.516-2.671.058-.116-.638-.406-.522-.522zm25.316.987c-.87.638-1.799 1.103-3.134 1.741.522-.406 2.032-1.103 2.903-1.683.058 0 .058.058.231-.058zm4.414-4.355a.497.497 0 0 0-.014.102c-.486.612-.937 1.242-1.554 1.64.116-.116.116-.175.174-.29.174-.175.233-.117.348-.233.35-.523.64-.697.871-1.104.059 0 .116 0 .175-.115zM6.445 34.336c.29.58.813 2.148 1.278 3.077 0 .043-.007.069-.01.091-.437-.888-.826-1.845-1.268-3.168zm.432-13.364l.033.009c-.116.697-.174 1.103-.407 1.742 0-.058 0-.116-.058-.116 0 0-.058.174-.058.29 0 .174.058.058.058.348-.058.407-.058-.058-.116.175.058.464-.116.813-.174 1.161 0-.116-.058-.29-.058-.406.058-.349.116-.233.116-.64v.291c.058-.116.058-.464 0-.522.174-.465.116-.755.348-1.51.117-.058.058.174.117.116v-.232c.058-.116 0-.116-.059-.116.117-.407.175-.64.29-.581zm.904-2.546c0 .174 0 .232.116.174-.407 1.103-.523 1.103-.871 2.323-.232.174.058-.523 0-.639.29-.755.406-1.22.755-1.858zm3.911-5.777l.037.029c-.464.406-.464.639-.813 1.045l.001-.002.035-.056c.11-.18.026-.023-.113.087l-.039.029c0 .058-.058.116-.116.29-.464.523-.697 1.162-.87 1.162-.175.29-.407.696-.698 1.16 0-.057.175-.29.116-.29-.058-.057-.29.465-.232.465-.116.116-.174.116-.116.174-.174.29-.29.349-.406.697l-.058-.058c-.058.116.058.058.058.116-.116.232-.116.058-.233.232-.058.175.058 0 .058.058-.116.175-.174.407-.29.64-.174.115-.116-.117-.174-.175.87-1.858 1.916-3.542 3.31-5.168.116.058.464-.58.58-.406zM26.774.883l-.529.008c-4.587.058-9.232 1.567-12.89 4.064a31.022 31.022 0 0 1 3.75-1.886c-.052.033-.092.064-.092.086.232-.116.116.058 0 .116.232-.116.58-.232.58-.29-.268.107-.328.063-.2-.036-.096.04-.193.084-.289.124.084-.053.208-.11.315-.146-.013.009-.015.014-.026.023a21.343 21.343 0 0 1 2.175-.778c.058.058-.174.174-.58.29.057.058.406-.058.812-.174-1.684.639-3.194 1.045-5.052 2.148-.116-.058-.696.349-.348.059-.523.348-1.916 1.451-1.916 1.219-.871.697-2.497 2.032-4.007 3.6-1.51 1.568-2.787 3.426-3.367 4.645.929-1.277 1.742-2.729 3.019-4.18.523-.64 1.336-1.278 2.032-1.859 3.426-3.077 8.304-5.69 13.297-6.155.101-.1.298-.143.503-.173l.11-.015-.425.054c-.187.026-.373.054-.56.086l-.557.107c.058-.059.29-.117.29-.175-.174-.058-.929.116-.987.058-.406.175.523-.058.349.117-.813.174-1.336.232-2.207.522.465-.232.639-.406 1.045-.58C26.755.535 33.663 1.03 39.752 4.707c2.076 1.071 4.179 2.546 5.887 4.253.091.09.176.184.266.275-.046-.091.088-.01.256.074-.755-.813-.348-.232-.87-.697-1.8-1.858-4.065-3.774-6.445-4.82-3.543-1.857-8.014-3.019-12.6-2.902zM46.603 9.97a25.221 25.221 0 0 1 2.3 2.992c-.67-1.115-1.442-2.177-2.3-2.992zM33.329 1.878c.175-.116 1.103.174 1.917.406 0 .058-.06 0-.175 0-.058 0 .058.058.116.116-.522-.058-1.161-.406-1.858-.522zm-5.225-.407a21.87 21.87 0 0 0-3.611.06c.406.013-.45.118-.396.172a34.43 34.43 0 0 1 2.555-.116c-.523-.058-1.336 0-1.917.058.581-.29 2.381-.116 3.369-.174z"></path></svg></g><path fill="#182bc2" fill-rule="nonzero" d="M20.96 14.75Q21.19 14.95 21.19 15.26Q21.19 15.58 20.98 15.79L20.98 15.79L17.57 15.79L18.94 20.35Q18.98 20.52 18.98 20.78Q18.98 21.05 18.65 21.43Q18.31 21.82 17.95 21.82L17.95 21.82Q17.28 21.82 16.90 21.48L16.90 21.48L15.19 15.79L9.07 15.79L7.87 19.06Q7.25 20.71 6.07 21.91Q4.90 23.11 3.02 23.11L3.02 23.11Q1.61 23.11 0.80 22.37Q0 21.62 0 20.21Q0 18.79 0.68 17.65Q1.37 16.51 2.50 15.86L2.50 15.86Q4.75 14.57 7.54 14.57L7.54 14.57L11.04 4.68Q11.28 3.98 11.54 3.65L11.54 3.65Q10.80 1.15 10.80 0.90Q10.80 0.65 11.15 0.32Q11.50 0 11.86 0L11.86 0Q12.55 0 12.94 0.34L12.94 0.34L17.18 14.57L20.33 14.54Q20.74 14.54 20.96 14.75ZM3.02 22.10L3.02 22.10Q4.82 22.10 6.14 18.48L6.14 18.48L7.08 15.82Q4.44 15.82 2.89 17.06Q1.34 18.31 1.34 20.35L1.34 20.35Q1.34 21.19 1.81 21.65Q2.28 22.10 3.02 22.10ZM14.81 14.57L12.46 5.50L9.53 14.57L14.81 14.57ZM22.39 15.84L22.39 15.84L22.39 6.62Q22.39 3.50 22.99 2.10Q23.59 0.70 25.30 0.70L25.30 0.70Q26.21 0.70 26.71 1.46Q27.22 2.23 27.22 3.65L27.22 3.65Q27.22 6.22 24.55 8.88L24.55 8.88L24.55 10.15Q25.44 9.19 26.81 9.19L26.81 9.19Q28.90 9.19 30.24 10.61Q31.58 12.02 31.58 14.62Q31.58 17.21 30.29 18.66Q28.99 20.11 26.94 20.11Q24.89 20.11 23.64 18.94Q22.39 17.76 22.39 15.84ZM29.30 14.62Q29.30 12.12 28.78 11.12Q28.25 10.13 26.90 10.13Q25.56 10.13 25.06 10.97Q24.55 11.81 24.55 13.85L24.55 13.85L24.55 15.10Q24.55 17.26 25.12 18.22Q25.68 19.18 26.98 19.18Q28.27 19.18 28.79 18.14Q29.30 17.11 29.30 14.62ZM25.32 1.63L25.32 1.63Q24.84 1.63 24.70 2.60Q24.55 3.58 24.55 6.67L24.55 6.67L24.55 7.73Q26.18 5.62 26.18 3.62Q26.18 1.63 25.32 1.63ZM38.10 9.19Q40.22 9.19 41.57 10.61Q42.91 12.02 42.91 14.46Q42.91 16.90 41.65 18.50Q40.39 20.11 38.28 20.11Q36.17 20.11 34.76 18.66Q33.36 17.21 33.36 14.63Q33.36 12.05 34.67 10.62Q35.98 9.19 38.10 9.19ZM38.11 10.13L38.11 10.13Q37.46 10.13 37.00 10.45Q36.53 10.78 36.53 11.38L36.53 11.38Q36.53 12.91 37.73 14.32Q38.93 15.72 40.58 16.18L40.58 16.18Q40.63 15.26 40.63 14.62L40.63 14.62Q40.63 12.12 40.10 11.12Q39.58 10.13 38.11 10.13ZM35.64 14.62L35.64 14.62Q35.64 17.06 36.25 18.12Q36.86 19.18 38.26 19.18L38.26 19.18Q39.22 19.18 39.73 18.68Q40.25 18.19 40.44 17.09L40.44 17.09Q38.88 16.75 37.57 15.67Q36.26 14.59 35.66 13.27L35.66 13.27Q35.64 13.68 35.64 14.62ZM51.72 9.89L51.72 9.89Q52.03 9.19 52.72 9.19Q53.40 9.19 53.74 9.53L53.74 9.53L53.74 21.72Q54.02 21.70 54.65 21.70Q55.27 21.70 55.27 22.22L55.27 22.22L55.13 22.58Q54.22 22.58 53.74 22.61L53.74 22.61L53.74 23.86Q53.71 26.33 52.60 27.73Q51.48 29.14 49.63 29.14L49.63 29.14Q48.53 29.14 47.68 28.48Q46.82 27.82 46.82 26.40L46.82 26.40Q46.82 24.58 48.12 23.50Q49.42 22.42 51.58 21.98L51.58 21.98L51.58 18.46Q50.57 20.11 48.79 20.11L48.79 20.11Q44.59 20.11 44.59 14.62L44.59 14.62Q44.59 11.83 45.90 10.51Q47.21 9.19 49.37 9.19L49.37 9.19Q51.02 9.19 51.72 9.89ZM51.58 15.02L51.58 15.02L51.58 13.32Q51.58 11.62 51 10.87Q50.42 10.13 49.67 10.13Q48.91 10.13 48.48 10.27Q48.05 10.42 47.64 10.87L47.64 10.87Q46.87 11.74 46.87 14.62L46.87 14.62Q46.87 16.51 47.21 17.57Q47.54 18.62 47.98 18.90Q48.41 19.18 49.19 19.18Q49.97 19.18 50.77 18.18Q51.58 17.18 51.58 15.02ZM51.58 23.81L51.58 23.81L51.58 22.90Q48.05 23.69 48.05 26.47L48.05 26.47Q48.05 27.31 48.50 27.76Q48.96 28.20 49.58 28.20L49.58 28.20Q50.59 28.20 51.08 27.26Q51.58 26.33 51.58 23.81ZM63.14 9.89L63.14 9.89Q63.46 9.19 64.14 9.19Q64.82 9.19 65.16 9.53L65.16 9.53L65.16 16.42Q65.16 17.78 65.59 18.48Q66.02 19.18 66.77 19.18L66.77 19.18Q69.02 19.18 69.02 14.50L69.02 14.50Q69.05 14.35 69.38 14.35L69.38 14.35Q69.82 14.35 69.82 15.62L69.82 15.62Q69.82 17.66 68.94 18.89Q68.06 20.11 66.48 20.11L66.48 20.11Q64.06 20.11 63.26 17.98L63.26 17.98Q62.81 18.96 62.02 19.54Q61.22 20.11 60.22 20.11L60.22 20.11Q56.02 20.11 56.02 14.62L56.02 14.62Q56.02 11.83 57.32 10.51Q58.63 9.19 60.79 9.19L60.79 9.19Q62.45 9.19 63.14 9.89ZM58.63 17.57Q58.97 18.62 59.40 18.90Q59.83 19.18 60.55 19.18Q61.27 19.18 62.12 18.28Q62.98 17.38 62.98 15.94L62.98 15.94L62.98 12.65Q62.98 11.52 62.39 10.82Q61.80 10.13 61.07 10.13Q60.34 10.13 59.90 10.27Q59.47 10.42 59.09 10.87L59.09 10.87Q58.30 11.74 58.30 14.62L58.30 14.62Q58.30 16.51 58.63 17.57ZM69.10 15.84L69.10 15.84L69.10 6.62Q69.10 3.50 69.70 2.10Q70.30 0.70 72 0.70L72 0.70Q72.91 0.70 73.42 1.46Q73.92 2.23 73.92 3.65L73.92 3.65Q73.92 6.22 71.26 8.88L71.26 8.88L71.26 10.15Q72.14 9.19 73.51 9.19L73.51 9.19Q75.60 9.19 76.94 10.61Q78.29 12.02 78.29 14.62Q78.29 17.21 76.99 18.66Q75.70 20.11 73.64 20.11Q71.59 20.11 70.34 18.94Q69.10 17.76 69.10 15.84ZM76.01 14.62Q76.01 12.12 75.48 11.12Q74.95 10.13 73.61 10.13Q72.26 10.13 71.76 10.97Q71.26 11.81 71.26 13.85L71.26 13.85L71.26 15.10Q71.26 17.26 71.82 18.22Q72.38 19.18 73.68 19.18Q74.98 19.18 75.49 18.14Q76.01 17.11 76.01 14.62ZM72.02 1.63L72.02 1.63Q71.54 1.63 71.40 2.60Q71.26 3.58 71.26 6.67L71.26 6.67L71.26 7.73Q72.89 5.62 72.89 3.62Q72.89 1.63 72.02 1.63ZM84.80 9.19Q86.93 9.19 88.27 10.61Q89.62 12.02 89.62 14.46Q89.62 16.90 88.36 18.50Q87.10 20.11 84.98 20.11Q82.87 20.11 81.47 18.66Q80.06 17.21 80.06 14.63Q80.06 12.05 81.37 10.62Q82.68 9.19 84.80 9.19ZM84.82 10.13L84.82 10.13Q84.17 10.13 83.70 10.45Q83.23 10.78 83.23 11.38L83.23 11.38Q83.23 12.91 84.43 14.32Q85.63 15.72 87.29 16.18L87.29 16.18Q87.34 15.26 87.34 14.62L87.34 14.62Q87.34 12.12 86.81 11.12Q86.28 10.13 84.82 10.13ZM82.34 14.62L82.34 14.62Q82.34 17.06 82.96 18.12Q83.57 19.18 84.96 19.18L84.96 19.18Q85.92 19.18 86.44 18.68Q86.95 18.19 87.14 17.09L87.14 17.09Q85.58 16.75 84.28 15.67Q82.97 14.59 82.37 13.27L82.37 13.27Q82.34 13.68 82.34 14.62ZM91.27 7.10Q91.27 6.38 91.63 6.01Q91.99 5.64 92.54 5.64Q93.10 5.64 93.43 5.98L93.43 5.98L93.43 9.53L96.72 9.53Q97.22 9.53 97.38 9.72Q97.54 9.91 97.54 10.37L97.54 10.37L93.43 10.37L93.43 16.42Q93.43 17.74 94.19 18.46Q94.94 19.18 95.93 19.18L95.93 19.18Q97.42 19.18 98.11 18.07Q98.81 16.97 98.81 14.50L98.81 14.50Q98.86 14.35 99.17 14.35L99.17 14.35Q99.60 14.35 99.60 15.62L99.60 15.62Q99.60 17.57 98.63 18.84Q97.66 20.11 95.64 20.11Q93.62 20.11 92.45 19.06Q91.27 18 91.27 15.91L91.27 15.91L91.27 7.10Z" transform="translate(31.556, 7.98)"></path></svg>